<svg width="188" height="23" viewBox="0 0 188 23" fill="none" xmlns="http://www.w3.org/2000/svg">
<path fill-rule="evenodd" clip-rule="evenodd" d="M50.0342 0H47.9029C46.0001 0 44.7867 0.595294 44.1196 1.70922V0.175882C44.1196 0.1578 44.1196 0.14878 44.1151 0.144281C44.1106 0.139804 44.1016 0.139804 44.0838 0.139804H38.0662C38.0484 0.139804 38.0394 0.139804 38.0349 0.144281C38.0304 0.14878 38.0304 0.157799 38.0304 0.175882V22.9639C38.0304 22.982 38.0304 22.991 38.0349 22.9955C38.0394 23 38.0484 23 38.0662 23H44.0838C44.1016 23 44.1106 23 44.1151 22.9955C44.1196 22.991 44.1196 22.982 44.1196 22.9639V16.0639C44.8136 17.1237 46.0225 17.6604 47.8268 17.6604H49.479C53.7593 17.6604 55.4294 16.1541 55.4294 12.1945V5.67784C55.4294 1.92569 54.422 0 50.0342 0ZM48.6778 8.90211L51.8791 3.71584L46.7302 6.94035L41.5812 3.71584L44.7825 8.90211L41.5812 14.0884L46.7302 10.8639L51.8791 14.0884L48.6778 8.90211ZM63.5069 17.6975C59.4728 17.6975 57.8699 16.1551 57.8699 12.651V5.43079C57.8699 1.92667 59.2982 0.172359 63.3995 0.172359H69.6946C73.3123 0.172359 74.8436 1.81844 74.8436 5.04295V11.0365H63.8159V12.6149C63.8159 12.633 63.8159 12.642 63.8204 12.6465C63.8249 12.651 63.8338 12.651 63.8517 12.651H74.7406C74.7584 12.651 74.7674 12.651 74.7719 12.6555C74.7764 12.66 74.7764 12.669 74.7764 12.6871V17.6614C74.7764 17.6975 74.7764 17.6975 74.7406 17.6975H63.5069ZM63.8562 7.00922H69.0767V5.04746C69.0767 5.02938 69.0767 5.02036 69.0722 5.01586C69.0677 5.01138 69.0588 5.01138 69.0409 5.01138H63.892C63.8741 5.01138 63.8652 5.01138 63.8607 5.01586C63.8562 5.02036 63.8562 5.02938 63.8562 5.04746V7.00922ZM0.179126 17.6917C0.183614 17.6962 0.192569 17.6962 0.210435 17.6962V17.7007H11.0993C14.614 17.7007 15.9707 16.3026 15.9707 13.0421V11.1164C15.9707 7.85578 14.5782 6.56146 11.0635 6.56146H5.95039C5.93252 6.56146 5.92357 6.56146 5.91908 6.55699C5.91457 6.55249 5.91457 6.54347 5.91457 6.52539V5.22656C5.91457 5.20848 5.91457 5.19946 5.91908 5.19496C5.92357 5.19048 5.93252 5.19048 5.95039 5.19048H15.6214C15.6573 5.19048 15.6573 5.19048 15.6573 5.15441V0.21166C15.6573 0.175581 15.6573 0.175581 15.6214 0.175581H5.11312C1.53125 0.175581 0 1.64578 0 5.04617V6.86813C0 10.1287 1.42827 11.3193 5.22058 11.3148H9.95313C9.971 11.3148 9.97995 11.3148 9.98444 11.3193C9.98895 11.3238 9.98895 11.3328 9.98895 11.3509V12.6497C9.98895 12.6678 9.98895 12.6768 9.98444 12.6813C9.97995 12.6858 9.971 12.6858 9.95313 12.6858H0.210435C0.192569 12.6858 0.183614 12.6858 0.179126 12.6903C0.174616 12.6948 0.174616 12.7038 0.174616 12.7219V17.6601C0.174616 17.6782 0.174616 17.6872 0.179126 17.6917ZM35.2639 0.21166C35.2639 0.175581 35.2639 0.175581 35.2281 0.175581H29.3448C29.309 0.175581 29.309 0.175581 29.309 0.21166V12.0905C29.309 12.1086 29.309 12.1176 29.3045 12.1221C29.3 12.1266 29.2911 12.1266 29.2732 12.1266H24.2989C24.281 12.1266 24.2721 12.1266 24.2676 12.1221C24.2631 12.1176 24.2631 12.1086 24.2631 12.0905V0.21166C24.2631 0.193577 24.2631 0.184557 24.2586 0.180058C24.2541 0.175581 24.2451 0.175581 24.2272 0.175581H18.3485C18.3306 0.175581 18.3217 0.175581 18.3172 0.180058C18.3127 0.184557 18.3127 0.193577 18.3127 0.21166V12.1987C18.3127 15.9464 19.8439 17.7683 23.9138 17.7683H24.9929C28.0196 17.7683 29.2374 16.0501 29.309 13.493V17.6646C29.309 17.7007 29.309 17.7007 29.3448 17.7007H35.2281C35.2639 17.7007 35.2639 17.7007 35.2639 17.6646V0.21166ZM94.781 17.693C94.7855 17.6975 94.7944 17.6975 94.8123 17.6975H105.701C109.216 17.6975 110.573 16.2994 110.573 13.0388V11.1131C110.573 7.85256 109.18 6.55824 105.665 6.55824H100.552C100.534 6.55824 100.525 6.55824 100.521 6.55377C100.516 6.54927 100.516 6.54025 100.516 6.52216V5.22334C100.516 5.20526 100.516 5.19624 100.521 5.19174C100.525 5.18726 100.534 5.18726 100.552 5.18726H110.223C110.241 5.18726 110.25 5.18726 110.255 5.18278C110.259 5.17829 110.259 5.16927 110.259 5.15118V0.208438C110.259 0.190355 110.259 0.181336 110.255 0.176837C110.25 0.172359 110.241 0.172359 110.223 0.172359H99.715C96.1331 0.172359 94.6019 1.64256 94.6019 5.04295V6.86491C94.6019 10.1255 96.0301 11.3161 99.8224 11.3161H104.555C104.591 11.3161 104.591 11.3161 104.591 11.3522V12.651C104.591 12.6691 104.591 12.6781 104.586 12.6826C104.582 12.6871 104.573 12.6871 104.555 12.6871H94.8123C94.7944 12.6871 94.7855 12.6871 94.781 12.6915C94.7765 12.696 94.7765 12.7051 94.7765 12.7231V17.6614C94.7765 17.6795 94.7765 17.6885 94.781 17.693ZM138.207 17.7999C134.311 17.7999 132.78 16.6093 132.78 13.5246V11.3148C132.78 8.44205 133.859 6.68774 137.754 6.68774H140.606C142.276 6.68774 144.085 6.7599 144.573 8.15794V5.18146C144.573 5.16338 144.573 5.15436 144.569 5.14986C144.564 5.14539 144.555 5.14539 144.538 5.14539H133.196C133.179 5.14539 133.17 5.14539 133.165 5.14091C133.161 5.13641 133.161 5.12739 133.161 5.10931V0.21166C133.161 0.193579 133.161 0.184559 133.165 0.18006C133.17 0.175581 133.179 0.175581 133.196 0.175581H144.887C148.921 0.175581 150.524 1.85774 150.524 5.36186V17.6601C150.524 17.6962 150.524 17.6962 150.488 17.6962H144.573C144.555 17.6962 144.546 17.6962 144.542 17.6917C144.54 17.6896 144.539 17.6865 144.538 17.6821C144.538 17.6796 144.538 17.6767 144.538 17.6733L144.538 17.6603V17.6601V14.4356C144.399 16.6093 143.006 17.7999 139.805 17.7999H138.207ZM144.538 12.9293C144.555 12.9293 144.564 12.9293 144.569 12.9248C144.573 12.9203 144.573 12.9113 144.573 12.8932V10.9315C144.573 10.9134 144.573 10.9044 144.569 10.8999C144.564 10.8954 144.555 10.8954 144.538 10.8954H138.587C138.569 10.8954 138.56 10.8954 138.556 10.8999C138.551 10.9044 138.551 10.9134 138.551 10.9315V12.8932C138.551 12.9113 138.551 12.9203 138.556 12.9248C138.56 12.9293 138.569 12.9293 138.587 12.9293H144.538ZM152.982 12.2303C152.982 15.9779 154.37 17.6962 158.511 17.6962V17.7052H167.869C167.887 17.7052 167.896 17.7052 167.9 17.7007C167.905 17.6962 167.905 17.6872 167.905 17.6691V12.4107C167.905 12.3926 167.905 12.3836 167.9 12.3791C167.899 12.3776 167.897 12.3766 167.894 12.3759C167.889 12.3746 167.881 12.3746 167.869 12.3746H158.999C158.981 12.3746 158.972 12.3746 158.968 12.3701C158.963 12.3656 158.963 12.3566 158.963 12.3385V5.54225C158.963 5.52417 158.963 5.51515 158.968 5.51065C158.972 5.50617 158.981 5.50617 158.999 5.50617H167.869C167.887 5.50617 167.896 5.50617 167.9 5.50169C167.905 5.49719 167.905 5.48817 167.905 5.47009V0.21166C167.905 0.193579 167.905 0.184559 167.9 0.18006C167.896 0.175581 167.887 0.175581 167.869 0.175581H158.511C154.41 0.175581 152.982 1.88931 152.982 5.60539V12.2303ZM175.767 17.6975C171.733 17.6975 170.13 16.1551 170.13 12.651V5.43079C170.13 1.92667 171.559 0.172359 175.66 0.172359H181.955C185.573 0.172359 187.104 1.81844 187.104 5.04295V11.0365H176.076V12.6149C176.076 12.633 176.076 12.642 176.081 12.6465C176.085 12.651 176.094 12.651 176.112 12.651H187.001C187.019 12.651 187.028 12.651 187.032 12.6555C187.037 12.66 187.037 12.669 187.037 12.6871V17.6614C187.037 17.6975 187.037 17.6975 187.001 17.6975H175.767ZM176.112 7.00922H181.333V5.04746V5.04728C181.333 5.02931 181.333 5.02034 181.328 5.01586C181.324 5.01138 181.315 5.01138 181.297 5.01138H176.148C176.112 5.01138 176.112 5.01138 176.112 5.04746V7.00922ZM87.5369 5.4295V8.93362H92.6142V5.04617C92.6142 1.71793 91.3606 0.175581 88.1951 0.175581H86.4892C84.1565 0.175581 83.1491 1.82166 83.0819 4.03146V0.21166C83.0819 0.193577 83.0819 0.184558 83.0774 0.180059C83.073 0.175581 83.064 0.175581 83.0461 0.175581H77.445C77.4271 0.175581 77.4182 0.175581 77.4137 0.180059C77.4092 0.184558 77.4092 0.193577 77.4092 0.21166V17.6646C77.4092 17.6827 77.4092 17.6917 77.4137 17.6962C77.4182 17.7007 77.4271 17.7007 77.445 17.7007H83.0461C83.064 17.7007 83.073 17.7007 83.0774 17.6962C83.0819 17.6917 83.0819 17.6827 83.0819 17.6646V5.4295C83.0819 5.41142 83.0819 5.4024 83.0865 5.3979C83.0909 5.39342 83.0999 5.39342 83.1178 5.39342H87.5011C87.5198 5.39579 87.5288 5.39691 87.533 5.40197C87.5369 5.40658 87.5369 5.41446 87.5369 5.4295ZM124.86 0H122.728C120.826 0 119.612 0.595294 118.945 1.70922V0.175882C118.945 0.139804 118.945 0.139804 118.909 0.139804H112.892C112.874 0.139804 112.865 0.139804 112.86 0.144281C112.856 0.14878 112.856 0.1578 112.856 0.175882V22.9639C112.856 23 112.856 23 112.892 23H118.909C118.945 23 118.945 23 118.945 22.9639V16.0639C119.639 17.1237 120.848 17.6604 122.652 17.6604H124.304C128.585 17.6604 130.255 16.1541 130.255 12.1945V5.67784C130.25 1.92569 129.243 0 124.86 0ZM123.503 8.90211L126.704 3.71584L121.556 6.94035L116.402 3.71584L119.603 8.90211L116.402 14.0884L121.556 10.8639L126.704 14.0884L123.503 8.90211Z" fill="black"/>
</svg>
